<svg width="18px" height="18px" viewBox="0 0 18 18" xmlns="http://www.w3.org/2000/svg">
    <g stroke="none" stroke-width="1" fill="none" fill-rule="evenodd">
        <path d="M3.43636364,6.26125422 L1.03293632,6.26125422 C0.914330681,6.26125422 0.818181818,6.35740308 0.818181818,6.47600871 L0.818181818,11.5239775 C0.818181818,11.6425832 0.914330681,11.738732 1.03293632,11.738732 L3.43636364,11.738732 L9.20215852,16.0467944 C9.29717167,16.1177859 9.43174505,16.0983125 9.50273658,16.0032994 C9.53046955,15.9661823 9.54545455,15.9210914 9.54545455,15.8747578 L9.54545455,2.12522839 C9.54545455,2.00662276 9.44930568,1.9104739 9.33070005,1.9104739 C9.28436654,1.9104739 9.23927558,1.92545889 9.20215852,1.95319186 L3.43636364,6.26125422 Z" id="Fill-1-Copy" stroke="#FFFFFF" stroke-width="1.33333333"></path>
        <path d="M12.3333333,6.66666667 L16.9956562,11.2992346" id="Path-46" stroke="#FFFFFF" stroke-width="1.33333333" stroke-linecap="round" stroke-linejoin="round"></path>
        <path d="M16.9956562,6.66666667 L12.3333333,11.2992346 L16.9956562,6.66666667 Z" id="Path-46-Copy" stroke="#FFFFFF" stroke-width="1.33333333" stroke-linecap="round" stroke-linejoin="round"></path>
    </g>
</svg>