<svg width="18px" height="18px" viewBox="0 0 18 18" xmlns="http://www.w3.org/2000/svg">
    <g stroke="none" stroke-width="1" fill="none" fill-rule="evenodd">
        <path d="M15.2587736,13.8770053 C16.4443548,12.6613568 17.1818182,10.954877 17.1818182,9.0652417 C17.1818182,7.17449675 16.4434883,5.46712242 15.2566845,4.2513369" id="Oval-13-Copy-2" stroke="#FFFFFF" stroke-width="1.33333333" stroke-linecap="round"></path>
        <path d="M13.3796791,11.9518717 C13.9820469,11.1589254 14.342246,10.1530909 14.342246,9.05866253 C14.342246,7.96929654 13.9853715,6.9677067 13.3880225,6.17647059" id="Oval-13-Copy-3" stroke="#FFFFFF" stroke-width="1.33333333" stroke-linecap="round"></path>
        <path d="M3.43636364,6.26125422 L1.03293632,6.26125422 C0.914330681,6.26125422 0.818181818,6.35740308 0.818181818,6.47600871 L0.818181818,11.5239775 C0.818181818,11.6425832 0.914330681,11.738732 1.03293632,11.738732 L3.43636364,11.738732 L9.20215852,16.0467944 C9.29717167,16.1177859 9.43174505,16.0983125 9.50273658,16.0032994 C9.53046955,15.9661823 9.54545455,15.9210914 9.54545455,15.8747578 L9.54545455,2.12522839 C9.54545455,2.00662276 9.44930568,1.9104739 9.33070005,1.9104739 C9.28436654,1.9104739 9.23927558,1.92545889 9.20215852,1.95319186 L3.43636364,6.26125422 Z" id="Fill-1-Copy" stroke="#FFFFFF" stroke-width="1.33333333"></path>
    </g>
</svg>