<?xml version="1.0" encoding="UTF-8"?><!DOCTYPE svg PUBLIC "-//W3C//DTD SVG 1.1//EN"
        "http://www.w3.org/Graphics/SVG/1.1/DTD/svg11.dtd">
<svg xmlns="http://www.w3.org/2000/svg" xmlns:xlink="http://www.w3.org/1999/xlink">
    <symbol id="plyr-airplay">
        <path d="M16 1H2a1 1 0 0 0-1 1v10a1 1 0 0 0 1 1h3v-2H3V3h12v8h-2v2h3a1 1 0 0 0 1-1V2a1 1 0 0 0-1-1z"/>
        <path d="M4 17h10l-5-6z"/>
    </symbol>
    <symbol id="plyr-captions-off">
        <path d="M1 1c-.6 0-1 .4-1 1v11c0 .6.4 1 1 1h4.6l2.7 2.7c.2.2.4.3.7.3.3 0 .5-.1.7-.3l2.7-2.7H17c.6 0 1-.4 1-1V2c0-.6-.4-1-1-1H1zm4.52 10.15c1.99 0 3.01-1.32 3.28-2.41l-1.29-.39c-.19.66-.78 1.45-1.99 1.45-1.14 0-2.2-.83-2.2-2.34 0-1.61 1.12-2.37 2.18-2.37 1.23 0 1.78.75 1.95 1.43l1.3-.41C8.47 4.96 7.46 3.76 5.5 3.76c-1.9 0-3.61 1.44-3.61 3.7 0 2.26 1.65 3.69 3.63 3.69zm7.57 0c1.99 0 3.01-1.32 3.28-2.41l-1.29-.39c-.19.66-.78 1.45-1.99 1.45-1.14 0-2.2-.83-2.2-2.34 0-1.61 1.12-2.37 2.18-2.37 1.23 0 1.78.75 1.95 1.43l1.3-.41c-.28-1.15-1.29-2.35-3.25-2.35-1.9 0-3.61 1.44-3.61 3.7 0 2.26 1.65 3.69 3.63 3.69z"
              fill-rule="evenodd" fill-opacity=".5"/>
    </symbol>
    <symbol id="plyr-captions-on">
        <path d="M1 1c-.6 0-1 .4-1 1v11c0 .6.4 1 1 1h4.6l2.7 2.7c.2.2.4.3.7.3.3 0 .5-.1.7-.3l2.7-2.7H17c.6 0 1-.4 1-1V2c0-.6-.4-1-1-1H1zm4.52 10.15c1.99 0 3.01-1.32 3.28-2.41l-1.29-.39c-.19.66-.78 1.45-1.99 1.45-1.14 0-2.2-.83-2.2-2.34 0-1.61 1.12-2.37 2.18-2.37 1.23 0 1.78.75 1.95 1.43l1.3-.41C8.47 4.96 7.46 3.76 5.5 3.76c-1.9 0-3.61 1.44-3.61 3.7 0 2.26 1.65 3.69 3.63 3.69zm7.57 0c1.99 0 3.01-1.32 3.28-2.41l-1.29-.39c-.19.66-.78 1.45-1.99 1.45-1.14 0-2.2-.83-2.2-2.34 0-1.61 1.12-2.37 2.18-2.37 1.23 0 1.78.75 1.95 1.43l1.3-.41c-.28-1.15-1.29-2.35-3.25-2.35-1.9 0-3.61 1.44-3.61 3.7 0 2.26 1.65 3.69 3.63 3.69z"
              fill-rule="evenodd"/>
    </symbol>
    <symbol id="plyr-download">
        <path d="M9 13c.3 0 .5-.1.7-.3L15.4 7 14 5.6l-4 4V1H8v8.6l-4-4L2.6 7l5.7 5.7c.2.2.4.3.7.3zM2 15h14v2H2z"/>
    </symbol>
    <symbol id="plyr-enter-fullscreen">
        <g fill="none" fill-rule="evenodd" stroke-linecap="round" stroke="#FFF" stroke-width="1.333">
            <path d="M12.547 2.667h2.341c.574 0 .779.204.779.778v2.342m0 3.9v5.201c0 .574-.205.779-.779.779H9.687m-3.9 0H3.445c-.574 0-.778-.205-.778-.779v-2.341m0-3.9V3.445c0-.574.204-.778.778-.778h5.202M3.187 3.187l4.68 4.68m2.6 2.6l4.68 4.68"/>
        </g>
    </symbol>
    <symbol id="plyr-exit-fullscreen">
        <path d="M1 12h3.6l-4 4L2 17.4l4-4V17h2v-7H1zM16 .6l-4 4V1h-2v7h7V6h-3.6l4-4z"/>
    </symbol>
    <symbol id="plyr-fast-forward">
        <path d="M7.875 7.171L0 1v16l7.875-6.171V17L18 9 7.875 1z"/>
    </symbol>
    <symbol id="plyr-logo-vimeo">
        <path d="M17 5.3c-.1 1.6-1.2 3.7-3.3 6.4-2.2 2.8-4 4.2-5.5 4.2-.9 0-1.7-.9-2.4-2.6C5 10.9 4.4 6 3 6c-.1 0-.5.3-1.2.8l-.8-1c.8-.7 3.5-3.4 4.7-3.5 1.2-.1 2 .7 2.3 2.5.3 2 .8 6.1 1.8 6.1.9 0 2.5-3.4 2.6-4 .1-.9-.3-1.9-2.3-1.1.8-2.6 2.3-3.8 4.5-3.8 1.7.1 2.5 1.2 2.4 3.3z"/>
    </symbol>
    <symbol id="plyr-logo-youtube">
        <path d="M16.8 5.8c-.2-1.3-.8-2.2-2.2-2.4C12.4 3 9 3 9 3s-3.4 0-5.6.4C2 3.6 1.3 4.5 1.2 5.8 1 7.1 1 9 1 9s0 1.9.2 3.2c.2 1.3.8 2.2 2.2 2.4C5.6 15 9 15 9 15s3.4 0 5.6-.4c1.4-.3 2-1.1 2.2-2.4.2-1.3.2-3.2.2-3.2s0-1.9-.2-3.2zM7 12V6l5 3-5 3z"/>
    </symbol>
    <symbol id="plyr-muted">
        <g fill="none" fill-rule="evenodd" stroke="#FFF" stroke-width="1.333">
            <path d="M3.436 6.261H1.033a.215.215 0 0 0-.215.215v5.048c0 .119.096.215.215.215h2.403l5.766 4.308a.215.215 0 0 0 .343-.172V2.125a.215.215 0 0 0-.343-.172L3.436 6.261z"/>
            <path d="M12.333 6.667l4.663 4.632M16.996 6.667l-4.663 4.632 4.663-4.632z" stroke-linecap="round"
                  stroke-linejoin="round"/>
        </g>
    </symbol>
    <symbol id="plyr-pause">
        <g fill="#FFF" fill-rule="evenodd">
            <rect x="1.413" y=".9" width="4.5" height="16.2" rx=".6"/>
            <rect x="12.213" y=".9" width="4.5" height="16.2" rx=".6"/>
        </g>
    </symbol>
    <symbol id="plyr-pip">
        <path d="M13.293 3.293L7.022 9.564l1.414 1.414 6.271-6.271L17 7V1h-6z"/>
        <path d="M13 15H3V5h5V3H2a1 1 0 0 0-1 1v12a1 1 0 0 0 1 1h12a1 1 0 0 0 1-1v-6h-2v5z"/>
    </symbol>
    <symbol id="plyr-play">
        <path d="M15.361 9.77L3.586 17.46c-.676.44-1.429.031-1.429-.775V1.197c0-.807.756-1.214 1.43-.774L15.36 8.112c.64.417.637 1.243 0 1.659z"
              fill="#FFF" fill-rule="nonzero"/>
    </symbol>
    <symbol id="plyr-restart">
        <path d="M9.7 1.2l.7 6.4 2.1-2.1c1.9 1.9 1.9 5.1 0 7-.9 1-2.2 1.5-3.5 1.5-1.3 0-2.6-.5-3.5-1.5-1.9-1.9-1.9-5.1 0-7 .6-.6 1.4-1.1 2.3-1.3l-.6-1.9C6 2.6 4.9 3.2 4 4.1 1.3 6.8 1.3 11.2 4 14c1.3 1.3 3.1 2 4.9 2 1.9 0 3.6-.7 4.9-2 2.7-2.7 2.7-7.1 0-9.9L16 1.9l-6.3-.7z"/>
    </symbol>
    <symbol id="plyr-rewind">
        <path d="M10.125 1L0 9l10.125 8v-6.171L18 17V1l-7.875 6.171z"/>
    </symbol>
    <symbol id="plyr-settings">
        <path d="M16.135 7.784a2 2 0 0 1-1.23-2.969c.322-.536.225-.998-.094-1.316l-.31-.31c-.318-.318-.78-.415-1.316-.094a2 2 0 0 1-2.969-1.23C10.065 1.258 9.669 1 9.219 1h-.438c-.45 0-.845.258-.997.865a2 2 0 0 1-2.969 1.23c-.536-.322-.999-.225-1.317.093l-.31.31c-.318.318-.415.781-.093 1.317a2 2 0 0 1-1.23 2.969C1.26 7.935 1 8.33 1 8.781v.438c0 .45.258.845.865.997a2 2 0 0 1 1.23 2.969c-.322.536-.225.998.094 1.316l.31.31c.319.319.782.415 1.316.094a2 2 0 0 1 2.969 1.23c.151.607.547.865.997.865h.438c.45 0 .845-.258.997-.865a2 2 0 0 1 2.969-1.23c.535.321.997.225 1.316-.094l.31-.31c.318-.318.415-.781.094-1.316a2 2 0 0 1 1.23-2.969c.607-.151.865-.547.865-.997v-.438c0-.451-.26-.846-.865-.997zM9 12a3 3 0 1 1 0-6 3 3 0 0 1 0 6z"/>
    </symbol>
    <symbol id="plyr-volume">
        <g fill="none" fill-rule="evenodd" stroke="#FFF" stroke-width="1.333">
            <path d="M15.259 13.877c1.185-1.216 1.923-2.922 1.923-4.812 0-1.89-.739-3.598-1.925-4.814M13.38 11.952a4.77 4.77 0 0 0 .962-2.893c0-1.09-.357-2.091-.954-2.883"
                  stroke-linecap="round"/>
            <path d="M3.436 6.261H1.033a.215.215 0 0 0-.215.215v5.048c0 .119.096.215.215.215h2.403l5.766 4.308a.215.215 0 0 0 .343-.172V2.125a.215.215 0 0 0-.343-.172L3.436 6.261z"/>
        </g>
    </symbol>
</svg>